<svg id="6881318c-8d46-4786-952c-7cc8bf5cb408" data-name="Layer 1" xmlns="http://www.w3.org/2000/svg" viewBox="0 0 338.02 353.01"><defs><style>.\34 5af270d-9ea2-4ea9-92e0-b79b10a31e67,.f0c789b2-89ad-46e6-9192-efe4ea05243f{fill:none;}.\38 efb2ad4-7dc1-438b-97cb-ee55a75aefb0,.b52433e8-eafe-4af9-8c29-a2dd4dca0a3d,.f0c789b2-89ad-46e6-9192-efe4ea05243f{stroke:#000;stroke-miterlimit:10;}.f0c789b2-89ad-46e6-9192-efe4ea05243f{stroke-width:16px;}.b52433e8-eafe-4af9-8c29-a2dd4dca0a3d{stroke-width:2px;}.\38 efb2ad4-7dc1-438b-97cb-ee55a75aefb0{stroke-width:10px;}</style></defs><title>crypt-logo</title><path class="f0c789b2-89ad-46e6-9192-efe4ea05243f" d="M626,384c0,37.46-17.26,64.87-24.8,75.74-15.83,22.84-38.6,42.43-66.42,56.29.09,5.43.15,12.89,0,21.8-.24,14.31-.74,16.7-1.82,19.21-2.91,6.76-10.5,15.62-21.89,16-9.41.31-18.31-5.28-22.8-14.25-4.65,8.16-13.79,13.34-23.72,13.41-10.44.08-20.08-5.49-24.63-14.25-5.42,9.69-16.06,15.37-26.45,14.25-13.38-1.44-19.61-13.33-20.07-14.25-1.86-3.69-2-6.62-1.82-20.12.12-8.21.3-15.56.49-21.89C339.2,489.86,304.83,439,304,384c-.92-60.89,39.65-100.46,46.76-107.15,43.74-41.2,97.86-40.9,114.24-40.8a177.91,177.91,0,0,1,53.37,8.58,63.24,63.24,0,0,0-6.13,50.94,36.66,36.66,0,0,0-11.57,6.72c-3.42,3-7.39,7.55-11.57,18.24a107.06,107.06,0,0,0-6.75,29.76c-2.26,23.85,2,41.22,3.86,48,3.34,11.9,6.65,16.67,8.68,19.2,2.67,3.34,11.67,14.61,23.14,13.44,9.33-.95,15.26-9.53,19.28-15.36s5.77-11.28,7.71-17.28A98.5,98.5,0,0,0,548.87,381a124.25,124.25,0,0,0,1-25.92,80.56,80.56,0,0,0,74,5.72A122.26,122.26,0,0,1,626,384Z" transform="translate(-295.98 -227.99)"/><path class="45af270d-9ea2-4ea9-92e0-b79b10a31e67" d="M541,561" transform="translate(-295.98 -227.99)"/><ellipse class="b52433e8-eafe-4af9-8c29-a2dd4dca0a3d" cx="113.58" cy="135.22" rx="33.26" ry="66.73"/><path class="8efb2ad4-7dc1-438b-97cb-ee55a75aefb0" d="M467,443c-14.79,0-24.22,30.73-20.12,34,3.38,2.7,20.12-10,20.12-10h0c19,10.93,20.12,10,20.12,10C491.22,473.73,481.79,443,467,443Z" transform="translate(-295.98 -227.99)"/></svg>